HIERARCHY
ROOT Hips
{
	OFFSET 0.00000 0.00000 0.00000
	CHANNELS 6 Xposition Yposition Zposition Zrotation Yrotation Xrotation 
	JOINT LHipJoint
	{
		OFFSET 0 0 0
		CHANNELS 3 Zrotation Yrotation Xrotation
		JOINT LeftUpLeg
		{
			OFFSET 1.36337 -1.57426 1.11036
			CHANNELS 3 Zrotation Yrotation Xrotation
			JOINT LeftLeg
			{
				OFFSET 2.38468 -6.55187 0.00000
				CHANNELS 3 Zrotation Yrotation Xrotation
				JOINT LeftFoot
				{
					OFFSET 2.37166 -6.51609 0.00000
					CHANNELS 3 Zrotation Yrotation Xrotation
					JOINT LeftToeBase
					{
						OFFSET 0.29078 -0.79891 2.01393
						CHANNELS 3 Zrotation Yrotation Xrotation
						End Site
						{
							OFFSET 0.00000 -0.00000 1.07924
						}
					}
				}
			}
		}
	}
	JOINT RHipJoint
	{
		OFFSET 0 0 0
		CHANNELS 3 Zrotation Yrotation Xrotation
		JOINT RightUpLeg
		{
			OFFSET -1.36349 -1.57426 1.11036
			CHANNELS 3 Zrotation Yrotation Xrotation
			JOINT RightLeg
			{
				OFFSET -2.29562 -6.30717 0.00000
				CHANNELS 3 Zrotation Yrotation Xrotation
				JOINT RightFoot
				{
					OFFSET -2.40985 -6.62100 0.00000
					CHANNELS 3 Zrotation Yrotation Xrotation
					JOINT RightToeBase
					{
						OFFSET -0.23197 -0.63733 1.92232
						CHANNELS 3 Zrotation Yrotation Xrotation
						End Site
						{
							OFFSET -0.00000 -0.00000 1.01562
						}
					}
				}
			}
		}
	}
	JOINT LowerBack
	{
		OFFSET 0 0 0
		CHANNELS 3 Zrotation Yrotation Xrotation
		JOINT Spine
		{
			OFFSET -0.08565 2.03602 -0.24562
			CHANNELS 3 Zrotation Yrotation Xrotation
			JOINT Spine1
			{
				OFFSET -0.00036 2.05693 0.00216
				CHANNELS 3 Zrotation Yrotation Xrotation
				JOINT Neck
				{
					OFFSET 0 0 0
					CHANNELS 3 Zrotation Yrotation Xrotation
					JOINT Neck1
					{
						OFFSET -0.03664 1.69515 0.31789
						CHANNELS 3 Zrotation Yrotation Xrotation
						JOINT Head
						{
							OFFSET 0.00932 1.70181 -0.46013
							CHANNELS 3 Zrotation Yrotation Xrotation
							End Site
							{
								OFFSET 0.01243 1.77620 -0.19377
							}
						}
					}
				}
				JOINT LeftShoulder
				{
					OFFSET 0 0 0
					CHANNELS 3 Zrotation Yrotation Xrotation
					JOINT LeftArm
					{
						OFFSET 3.74344 0.81315 -0.36647
						CHANNELS 3 Zrotation Yrotation Xrotation
						JOINT LeftForeArm
						{
							OFFSET 4.97185 -0.00000 -0.00000
							CHANNELS 3 Zrotation Yrotation Xrotation
							JOINT LeftHand
							{
								OFFSET 3.35811 -0.00000 0.00000
								CHANNELS 3 Zrotation Yrotation Xrotation
								JOINT LeftFingerBase
								{
									OFFSET 0 0 0
									CHANNELS 3 Zrotation Yrotation Xrotation
									JOINT LeftHandIndex1
									{
										OFFSET 0.62278 -0.00000 0.00000
										CHANNELS 3 Zrotation Yrotation Xrotation
										End Site
										{
											OFFSET 0.50210 -0.00000 0.00000
										}
									}
								}
								JOINT LThumb
								{
									OFFSET 0 0 0
									CHANNELS 3 Zrotation Yrotation Xrotation
									End Site
									{
										OFFSET 0.50976 -0.00000 0.50976
									}
								}
							}
						}
					}
				}
				JOINT RightShoulder
				{
					OFFSET 0 0 0
					CHANNELS 3 Zrotation Yrotation Xrotation
					JOINT RightArm
					{
						OFFSET -3.75385 0.50666 -0.06525
						CHANNELS 3 Zrotation Yrotation Xrotation
						JOINT RightForeArm
						{
							OFFSET -4.96493 -0.00000 -0.00000
							CHANNELS 3 Zrotation Yrotation Xrotation
							JOINT RightHand
							{
								OFFSET -3.34929 -0.00000 0.00000
								CHANNELS 3 Zrotation Yrotation Xrotation
								JOINT RightFingerBase
								{
									OFFSET 0 0 0
									CHANNELS 3 Zrotation Yrotation Xrotation
									JOINT RightHandIndex1
									{
										OFFSET -0.63804 -0.00000 0.00000
										CHANNELS 3 Zrotation Yrotation Xrotation
										End Site
										{
											OFFSET -0.51441 -0.00000 0.00000
										}
									}
								}
								JOINT RThumb
								{
									OFFSET 0 0 0
									CHANNELS 3 Zrotation Yrotation Xrotation
									End Site
									{
										OFFSET -0.52226 -0.00000 0.52226
									}
								}
							}
						}
					}
				}
			}
		}
	}
}
MOTION
Frames: 12
Frame Time: .0083333
-27.8022 16.6006 -0.113 0 0 0 0 0 0 -21 0 0 0 0 0 0 0 0 0 0 0 0 0 0 21 0 0 0 0 0 0 0 0 0 0 0 0 0 0 0 0 0 0 0 0 0 0 -16 0 0 21 0 0 11 0 0 0 -8 0 0 0 0 0 0 0 0 0 0 0 0 0 0 0 0 0 0 0 0 8 0 0 0 0 0 0 0 0 0 0 0 0 0 0 0 0 0
-27.8022 16.6006 -0.1130 -164.1660 67.9834 -148.2050 0.0000 0.0000 0.0000 -5.7547 -12.6181 -24.9772 2.8984 10.5288 30.7066 1.3418 6.3102 -24.9819 0.3969 -4.0449 -11.2029 0.0000 0.0000 0.0000 21.7068 -8.9746 -7.8806 0.0000 -0.0000 0.0000 -0.3313 -21.8000 -32.8874 -1.9620 -8.7865 25.1296 6.7656 3.3650 -20.9323 1.1657 2.9383 -1.5227 -1.6796 1.7539 10.3383 15.2785 15.5036 -1.6072 -9.8130 23.2619 19.6328 -3.1269 11.6567 9.3871 0.0000 0.0000 0.0000 -88.8480 1.5303 16.7843 14.8446 -23.9292 -3.1627 -0.0000 0.0000 -4.0077 24.8996 -11.0346 -5.0771 -7.1250 0.0000 -0.0000 -1.5468 17.8489 0.9986 0.0000 0.0000 0.0000 89.2816 2.6760 24.0224 -11.9741 19.7659 -2.0935 0.0000 -0.0000 -1.6396 -8.3918 -28.1817 3.9854 7.1250 -0.0000 -0.0000 24.1411 -56.7396 -7.2371
-27.8011 16.6099 -0.1067 -163.9600 68.0344 -147.6900 0.0000 0.0000 0.0000 -5.6241 -12.4158 -25.4176 2.8993 10.5302 30.7113 1.3204 6.6004 -25.0016 0.4805 -4.4450 -12.3322 0.0000 0.0000 0.0000 21.8441 -8.7433 -8.2162 0.0000 0.0000 -0.0000 -0.2526 -22.0431 -32.7118 -1.8826 -8.6170 24.6045 6.7941 3.7538 -21.1952 0.8925 3.4735 -1.7796 -1.8296 2.0126 10.2577 15.7134 15.1289 -1.6065 -9.5810 22.6512 19.7198 -3.2067 11.4187 9.3581 0.0000 -0.0000 0.0000 -88.3091 1.6590 17.9847 14.7960 -23.8612 -3.1430 -0.0000 0.0000 -4.1847 22.8262 -12.3444 -5.1418 -7.1250 0.0000 -0.0000 -3.0602 16.6349 2.0590 0.0000 -0.0000 0.0000 89.7447 2.3296 22.4722 -11.9597 19.7442 -2.0887 0.0000 -0.0000 -1.2200 -8.6971 -29.3434 4.2870 7.1250 -0.0000 -0.0000 24.6881 -57.8532 -8.0910
-27.8002 16.6143 -0.1030 -163.8360 68.0602 -147.3310 0.0000 0.0000 0.0000 -5.5051 -12.4606 -25.6749 2.8988 10.5293 30.7085 1.3114 6.7077 -25.0007 0.4294 -4.2052 -11.6547 0.0000 0.0000 0.0000 21.9347 -8.5900 -8.4632 0.0000 0.0000 -0.0000 -0.2432 -22.0739 -32.6936 -1.8803 -8.6121 24.5892 6.9377 4.2448 -21.3423 0.5043 4.1350 -2.0427 -2.1355 2.3370 10.1404 16.1779 14.7310 -1.7398 -9.2463 21.9850 19.9399 -3.2510 11.1600 9.3819 0.0000 -0.0000 0.0000 -87.6095 1.8185 19.6095 14.8012 -23.8684 -3.1451 -0.0000 0.0000 -4.4078 19.7537 -13.7778 -4.8883 -7.1250 0.0000 -0.0000 -5.2368 15.4179 3.6717 0.0000 -0.0000 0.0000 90.3095 1.8870 21.0848 -12.0127 19.8236 -2.1066 0.0000 -0.0000 -1.2397 -8.8458 -29.2373 4.3468 7.1250 -0.0000 -0.0000 24.4586 -57.7894 -7.9714
-27.7984 16.6150 -0.1003 -163.8460 68.1285 -147.1640 0.0000 0.0000 0.0000 -5.4871 -12.4750 -25.8707 2.9001 10.5315 30.7158 1.2894 6.7613 -24.8656 0.3167 -3.6178 -10.0037 0.0000 0.0000 0.0000 21.9277 -8.4638 -8.6258 0.0000 -0.0000 0.0000 -0.2693 -21.9924 -32.7502 -1.9238 -8.7055 24.8784 7.2080 4.7955 -21.3429 -0.3028 4.9464 -2.8754 -2.9582 2.7341 9.3795 18.3910 13.8528 0.1485 -9.4714 21.0253 19.7767 -3.9189 10.9492 9.1422 -0.0000 -0.0000 0.0000 -85.9871 3.3279 21.8119 14.9476 -24.0731 -3.2045 -0.0000 0.0000 -5.0789 16.7193 -15.2627 -4.5212 -7.1250 0.0000 -0.0000 -7.3414 14.1694 5.3660 -0.0000 -0.0000 0.0000 91.7748 0.1959 19.5180 -12.1587 20.0422 -2.1564 0.0000 -0.0000 -1.1608 -8.9791 -28.8368 4.3582 7.1250 -0.0000 -0.0000 24.0273 -57.4556 -7.6231
-27.8000 16.6197 -0.0988 -163.8550 68.2212 -146.9310 0.0000 0.0000 0.0000 -5.4974 -12.3746 -26.1630 2.9017 10.5341 30.7243 1.2841 6.7854 -24.8401 0.2667 -3.3221 -9.1768 0.0000 0.0000 0.0000 21.9152 -8.2827 -8.8715 0.0000 -0.0000 0.0000 -0.2495 -22.0499 -32.7014 -1.9062 -8.6679 24.7619 7.8110 5.5727 -21.1673 -1.4799 6.0385 -3.8643 -4.3051 3.2753 8.4941 21.0673 12.7335 2.0089 -9.7185 19.8119 19.5445 -4.6893 10.6474 8.8751 -0.0000 -0.0000 0.0000 -83.7548 4.8109 24.5870 15.0777 -24.2543 -3.2578 -0.0000 0.0000 -6.1605 17.4805 -14.6518 -4.5545 -7.1250 0.0000 -0.0000 -6.8123 14.7267 4.8921 -0.0000 -0.0000 0.0000 93.8796 -1.5944 17.2221 -12.3859 20.3808 -2.2348 0.0000 -0.0000 -0.7386 -9.1615 -28.8873 4.4549 7.1250 -0.0000 -0.0000 23.8813 -57.5399 -7.6225
-27.8013 16.6273 -0.0974 -164.0520 68.2873 -146.8720 0.0000 0.0000 0.0000 -5.5280 -12.4805 -26.3414 2.9021 10.5348 30.7265 1.2987 6.6238 -24.8485 0.1628 -2.5997 -7.1663 0.0000 0.0000 0.0000 21.8552 -8.1599 -9.1375 0.0000 -0.0000 0.0000 -0.2323 -22.0997 -32.6594 -1.8961 -8.6463 24.6951 6.3958 3.2390 -22.0813 1.0589 2.7759 -1.4554 -1.5869 1.6763 11.0200 15.2082 15.9309 -3.5921 -9.8548 23.5835 20.0009 -2.8816 11.6697 9.9121 0.0000 0.0000 0.0000 -88.8849 0.3560 17.1120 14.8317 -23.9111 -3.1574 -0.0000 0.0000 -5.2465 18.2777 -14.3998 -4.6956 -7.1250 0.0000 -0.0000 -6.2639 14.9118 4.4683 0.0000 0.0000 0.0000 89.2798 3.8197 24.1418 -11.8719 19.6123 -2.0591 0.0000 -0.0000 -1.8084 -9.1197 -28.8276 4.4260 7.1250 -0.0000 -0.0000 23.8796 -57.4769 -7.5851
-27.8017 16.6330 -0.0966 -164.2940 68.3307 -146.8830 0.0000 0.0000 0.0000 -5.5604 -12.5788 -26.5154 2.9010 10.5330 30.7207 1.3137 6.3822 -24.8099 0.0947 -1.9842 -5.4619 0.0000 0.0000 0.0000 21.7869 -8.0801 -9.3731 0.0000 -0.0000 0.0000 -0.2185 -22.1463 -32.6335 -1.8872 -8.6271 24.6357 6.2514 3.1090 -22.3126 1.1314 2.6202 -1.4865 -1.4656 1.5966 11.0884 15.1044 15.9713 -3.5335 -10.0410 23.7043 19.9472 -2.9136 11.7095 9.9108 0.0000 0.0000 0.0000 -89.1472 0.2984 16.9154 14.8394 -23.9219 -3.1605 -0.0000 0.0000 -5.6327 18.5743 -14.2891 -4.7412 -7.1250 0.0000 -0.0000 -6.0587 14.9983 4.3090 0.0000 0.0000 0.0000 89.0593 3.8922 24.4008 -11.8887 19.6375 -2.0647 0.0000 -0.0000 -1.8696 -9.1802 -28.9088 4.4672 7.1250 -0.0000 -0.0000 23.8783 -57.5633 -7.6352
-27.8027 16.6376 -0.0964 -164.4440 68.3788 -146.7910 0.0000 0.0000 0.0000 -5.5620 -12.5989 -26.7610 2.8969 10.5263 30.6985 1.3475 6.1589 -24.9312 0.0179 -0.8635 -2.3732 0.0000 0.0000 0.0000 21.7496 -7.9701 -9.6227 0.0000 0.0000 -0.0000 -0.2008 -22.2112 -32.6083 -1.8611 -8.5705 24.4606 6.1625 3.0686 -22.5427 1.1281 2.5834 -1.5862 -1.4245 1.5766 11.0939 15.1425 15.9264 -3.3610 -10.1730 23.6853 19.8584 -2.9817 11.7048 9.8686 0.0000 -0.0000 0.0000 -89.1667 0.3997 17.0938 14.8413 -23.9245 -3.1613 -0.0000 0.0000 -5.8833 19.2296 -13.4886 -4.6514 -7.1250 0.0000 -0.0000 -5.5875 15.7712 3.8772 0.0000 -0.0000 0.0000 89.0446 3.8608 24.3510 -11.8648 19.6016 -2.0567 0.0000 -0.0000 -1.7569 -9.3835 -29.5801 4.6636 7.1250 -0.0000 -0.0000 24.1767 -58.2151 -8.1236
-27.8045 16.6407 -0.0952 -164.5550 68.4176 -146.6710 0.0000 0.0000 0.0000 -5.5449 -12.7137 -26.9678 2.8894 10.5138 30.6570 1.3667 6.1868 -25.0958 0.0092 -0.6194 -1.7020 0.0000 0.0000 0.0000 21.7242 -7.8610 -9.8721 0.0000 0.0000 -0.0000 -0.1987 -22.2222 -32.6092 -1.8861 -8.6247 24.6283 6.1324 3.1200 -22.7458 1.0278 2.6665 -1.7079 -1.4878 1.6172 11.0761 15.3208 15.8333 -3.3277 -10.1664 23.5518 19.9203 -3.0260 11.6571 9.8883 -0.0000 0.0000 0.0000 -89.0147 0.4822 17.4062 14.8220 -23.8976 -3.1535 -0.0000 0.0000 -6.0272 20.7171 -11.5931 -4.3464 -7.1250 0.0000 -0.0000 -4.5026 17.6324 2.9363 -0.0000 0.0000 0.0000 89.2303 3.7647 24.0172 -11.8557 19.5878 -2.0536 0.0000 -0.0000 -1.6031 -9.4979 -29.8276 4.7570 7.1250 -0.0000 -0.0000 24.2514 -58.4638 -8.2977
-27.8071 16.6432 -0.0930 -164.6840 68.4448 -146.6090 0.0000 0.0000 0.0000 -5.5628 -12.7797 -27.1628 2.8788 10.4962 30.5991 1.3500 6.4202 -25.1140 0.0153 -0.7996 -2.1975 0.0000 0.0000 0.0000 21.6982 -7.7772 -10.0925 0.0000 0.0000 -0.0000 -0.1772 -22.2868 -32.5601 -1.8941 -8.6420 24.6817 6.1303 3.2135 -22.8898 0.8665 2.8045 -1.7978 -1.6184 1.6859 11.0713 15.6245 15.7363 -3.4104 -10.1942 23.3839 19.9770 -3.0918 11.5905 9.9430 -0.0000 -0.0000 0.0000 -88.7908 0.4781 17.7994 14.8367 -23.9182 -3.1594 -0.0000 0.0000 -6.1156 21.7909 -10.2236 -4.0588 -7.1250 0.0000 -0.0000 -3.7083 19.0005 2.3038 -0.0000 -0.0000 0.0000 89.5325 3.7214 23.5046 -11.8583 19.5918 -2.0545 0.0000 -0.0000 -1.4584 -9.5227 -29.6998 4.7511 7.1250 -0.0000 -0.0000 24.1277 -58.3537 -8.1874
-27.8069 16.6447 -0.0906 -164.9560 68.4676 -146.7240 0.0000 0.0000 0.0000 -5.6358 -12.8277 -27.2989 2.8663 10.4755 30.5305 1.3260 6.5677 -25.0230 0.0236 -0.9915 -2.7255 0.0000 0.0000 0.0000 21.6245 -7.7512 -10.2556 0.0000 -0.0000 0.0000 -0.1708 -22.2982 -32.5347 -1.8869 -8.6263 24.6333 5.9844 3.0795 -23.0514 0.9075 2.6599 -1.8889 -1.5334 1.6111 11.0347 15.5689 15.7504 -3.1147 -10.2549 23.4576 19.8589 -3.1212 11.6351 9.8592 0.0000 0.0000 0.0000 -88.9483 0.7006 17.7487 14.9470 -24.0722 -3.2043 -0.0000 0.0000 -6.3178 21.9353 -9.9276 -3.9716 -7.1250 0.0000 -0.0000 -3.5979 19.3058 2.2104 0.0000 0.0000 0.0000 89.4774 3.5619 23.6870 -11.9220 19.6876 -2.0759 0.0000 -0.0000 -1.4949 -9.5402 -29.7563 4.7681 7.1250 -0.0000 -0.0000 24.1533 -58.4086 -8.2291
